<!DOCTYPE svg PUBLIC "-//W3C//DTD SVG 1.1//EN" "http://www.w3.org/Graphics/SVG/1.1/DTD/svg11.dtd" [
	<!ENTITY ns_flows "http://ns.adobe.com/Flows/1.0/">
]><svg xmlns="http://www.w3.org/2000/svg" width="386" height="156" viewBox="0 0 386 156"><path fill-rule="evenodd" clip-rule="evenodd" fill="#0077C0" d="M0 0h385.928v155.905h-385.928v-155.905z"/><path fill-rule="evenodd" clip-rule="evenodd" fill="#fff" d="M28.449 97.436v-30.818h13.75v30.778c0 9.032 7.367 16.4 16.399 16.4h.391c9.033 0 16.4-7.368 16.4-16.4v-30.778h13.75v30.818c0 16.584-13.525 30.109-30.109 30.109h-.473c-16.583 0-30.108-13.525-30.108-30.109zm46.94-68.987h13.75v28.448h-60.69v-28.448h13.75v14.698h9.72v-14.698h13.75v14.698h9.72v-14.698z"/><path fill="#fff" d="M131.752 97.891h7.169l9.13-29.013h.171l9.131 29.013h6.912l14.336-40.62h-8.79l-8.705 29.014h-.171l-9.13-29.014h-7.253l-8.789 28.929h-.171l-8.875-28.929h-9.131l14.166 40.62zm190.74-.256h8.875v-28.757c3.242-2.731 6.912-4.865 10.666-4.865 5.377 0 6.57 4.267 6.57 9.558v24.064h8.875v-26.88c0-11.094-6.229-14.507-12.629-14.507-5.035 0-9.643 2.304-13.91 5.803l-.938-4.779h-7.51v40.363h.001zm-26.959-6.4c-6.742 0-10.582-5.803-10.582-13.91 0-8.021 3.84-13.824 10.582-13.824s10.496 5.803 10.496 13.824c0 8.107-3.754 13.91-10.496 13.91zm0 7.254c11.777 0 19.627-9.131 19.627-21.164 0-12.032-7.85-21.078-19.627-21.078-11.861 0-19.713 9.046-19.713 21.078 0 12.033 7.938 21.164 19.713 21.164zm-34.533 0c4.012 0 8.449-1.194 11.264-3.158l-2.814-6.144c-1.621 1.109-3.84 2.048-6.314 2.048-2.646 0-4.012-1.451-4.012-5.12v-21.845h9.898l2.219-6.998h-12.117v-12.032l-8.875 2.73v9.301h-7.082v6.998h7.082v23.809c-.001 6.57 4.011 10.411 10.751 10.411zm-37.186-9.387c0 5.888 3.07 9.131 9.301 9.131 2.133 0 4.779-.426 6.912-1.365l-1.791-6.912c-.77.256-1.965.512-2.561.512-1.963 0-2.988-.854-2.988-3.84v-49.41h-8.873v51.884zm-18.576-10.667v9.13c-1.621 1.451-4.693 3.84-8.789 3.84-4.012 0-6.572-2.389-6.572-6.229 0-2.304.939-4.096 2.816-5.12 1.537-.854 3.584-1.28 6.486-1.366l6.059-.255zm2.047 19.2h7.596c-.598-2.133-.768-5.632-.768-11.435v-15.53c0-9.813-5.633-14.422-15.617-14.422-5.291 0-10.411 1.28-15.189 4.011l3.072 5.888c2.816-1.621 6.485-2.986 10.751-2.986 4.779 0 8.107 2.218 8.107 7.51v1.706l-7.254.256c-4.096.171-7.509.683-10.325 2.134-4.096 2.048-6.741 5.547-6.741 10.923 0 7.765 5.546 12.8 13.141 12.8 5.035 0 8.789-2.133 11.777-4.95l1.45 4.095zM242.393 127.506c2.158 0 4.004-.975 5.465-2.264l.488 1.916h2.297c-.209-.836-.348-2.367-.348-5.57v-10.896h-2.541v12.218c-.871 1.148-2.717 2.332-4.631 2.332-1.357 0-2.297-.557-2.715-1.844-.244-.697-.279-1.463-.279-2.576v-10.13h-2.576v10.757c0 1.252.141 2.088.418 2.994.8 2.368 2.855 3.063 4.422 3.063zm12.74-.347h2.576v-12.115c1.533-1.357 3.203-2.471 5.049-2.471 2.332 0 2.959 1.879 2.959 4.352v10.234h2.541v-11.105c0-4.142-2.299-5.779-4.873-5.779-2.125 0-3.969 1.01-5.779 2.541l-.314-2.123h-2.158v16.466h-.001zm17.998 0h2.541v-16.466h-2.541v16.466zm1.254-20.192c1.01 0 1.74-.73 1.74-1.705 0-1.01-.695-1.74-1.74-1.74-1.01 0-1.705.766-1.705 1.74s.695 1.705 1.705 1.705zm10.652 20.295h2.193l6.301-16.57h-2.646l-4.664 13.16h-.07l-4.803-13.16h-2.682l6.371 16.57zm23.289-7.902v-.625c0-5.188-2.402-8.46-6.58-8.46-3.969 0-6.754 3.447-6.754 8.46 0 4.803 2.541 8.771 7.764 8.771 1.811 0 3.795-.521 5.221-1.463l-.801-1.809c-1.148.625-2.506 1.113-4.072 1.113-3.48 0-5.43-2.611-5.465-5.988h10.687v.001zm-10.687-1.985c.07-2.75 1.602-5.012 4.143-5.012 2.576 0 3.795 2.506 3.863 5.012h-8.006zm14.341 9.784h2.576v-12.115c1.602-1.637 2.785-2.367 3.969-2.367.592 0 1.01.139 1.428.348l.904-2.332c-.418-.244-1.113-.418-1.775-.418-1.428 0-2.818.522-4.629 2.507l-.314-2.089h-2.158v16.466h-.001zm9.366-1.045c1.043.662 2.785 1.393 4.943 1.393 3.377 0 6.092-1.566 6.092-4.838 0-5.57-7.764-4.318-7.764-7.973 0-1.775 1.602-2.297 3.168-2.297 1.602 0 2.854.417 3.969.905v-2.263c-1.08-.417-2.506-.766-4.072-.766-3.656 0-5.57 2.02-5.57 4.525 0 5.467 7.693 4.316 7.693 7.902 0 1.881-1.602 2.646-3.516 2.646-1.846 0-3.168-.627-4.109-1.219l-.834 1.985zm24.263 1.045h2.262c-.209-.836-.313-2.367-.313-5.605v-5.674c0-3.934-2.438-5.605-5.85-5.605-1.809 0-3.863.453-5.777 1.671l.975 1.811c1.148-.697 2.541-1.358 4.525-1.358 2.053 0 3.551 1.114 3.551 3.62v1.045l-3.133.104c-1.672.07-2.994.244-4.107.801-1.672.768-2.785 2.264-2.785 4.457 0 3.168 2.227 5.082 5.221 5.082 2.055 0 3.656-.975 4.943-2.193l.488 1.844zm-.627-8.147v4.178c-.766.801-2.299 2.158-4.352 2.158-1.881 0-3.064-1.254-3.064-3.063 0-1.08.488-2.02 1.428-2.543.732-.383 1.672-.592 3.098-.627l2.89-.103zm7.102 5.153c0 1.984 1.008 3.203 3.098 3.203.766 0 1.637-.174 2.297-.488l-.557-2.02c-.244.105-.73.244-1.01.244-.869 0-1.287-.383-1.287-1.74v-20.852h-2.541v21.653z"/></svg>