<?xml version="1.0" encoding="utf-8"?>
<!-- Generator: Adobe Illustrator 15.1.0, SVG Export Plug-In  -->
<!DOCTYPE svg PUBLIC "-//W3C//DTD SVG 1.1//EN" "http://www.w3.org/Graphics/SVG/1.1/DTD/svg11.dtd" [
	<!ENTITY ns_flows "http://ns.adobe.com/Flows/1.0/">
]>
<svg version="1.1"
	 xmlns="http://www.w3.org/2000/svg" xmlns:xlink="http://www.w3.org/1999/xlink" xmlns:a="http://ns.adobe.com/AdobeSVGViewerExtensions/3.0/"
	 x="0px" y="0px" width="386px" height="156px" viewBox="0 0 386 156" enable-background="new 0 0 386 156" xml:space="preserve">
<defs>
</defs>
<polygon fill-rule="evenodd" clip-rule="evenodd" fill="#0077C0" points="0,0 385.928,0 385.928,155.905 0,155.905 0,0 "/>
<path fill-rule="evenodd" clip-rule="evenodd" fill="#FFFFFF" d="M28.449,97.436V66.618h13.75v30.778
	c0,9.032,7.367,16.4,16.399,16.4h0.391c9.033,0,16.4-7.368,16.4-16.4V66.618h13.75v30.818c0,16.584-13.525,30.109-30.109,30.109
	c-0.158,0-0.315,0-0.473,0C41.974,127.545,28.449,114.02,28.449,97.436L28.449,97.436z M75.389,28.449h13.75v28.448
	c-20.23,0-40.46,0-60.69,0V28.449h13.75v14.698h9.72V28.449h13.75v14.698h9.72V28.449L75.389,28.449z"/>
<path fill="#FFFFFF" d="M131.752,97.891h7.169l9.13-29.013h0.171l9.131,29.013h6.912l14.336-40.62h-8.79l-8.705,29.014h-0.171
	l-9.13-29.014h-7.253l-8.789,28.929h-0.171l-8.875-28.929h-9.131L131.752,97.891L131.752,97.891z M322.492,97.635h8.875V68.878
	c3.242-2.731,6.912-4.865,10.666-4.865c5.377,0,6.57,4.267,6.57,9.558v24.064h8.875v-26.88c0-11.094-6.229-14.507-12.629-14.507
	c-5.035,0-9.643,2.304-13.91,5.803l-0.938-4.779h-7.51V97.635L322.492,97.635z M295.533,91.235c-6.742,0-10.582-5.803-10.582-13.91
	c0-8.021,3.84-13.824,10.582-13.824s10.496,5.803,10.496,13.824C306.029,85.432,302.275,91.235,295.533,91.235L295.533,91.235z
	 M295.533,98.489c11.777,0,19.627-9.131,19.627-21.164c0-12.032-7.85-21.078-19.627-21.078c-11.861,0-19.713,9.046-19.713,21.078
	C275.82,89.358,283.758,98.489,295.533,98.489L295.533,98.489z M261,98.489c4.012,0,8.449-1.194,11.264-3.158l-2.814-6.144
	c-1.621,1.109-3.84,2.048-6.314,2.048c-2.646,0-4.012-1.451-4.012-5.12V64.27h9.898l2.219-6.998h-12.117V45.24l-8.875,2.73v9.301
	h-7.082v6.998h7.082v23.809C250.248,94.648,254.26,98.489,261,98.489L261,98.489z M223.814,89.102c0,5.888,3.07,9.131,9.301,9.131
	c2.133,0,4.779-0.426,6.912-1.365l-1.791-6.912c-0.77,0.256-1.965,0.512-2.561,0.512c-1.963,0-2.988-0.854-2.988-3.84V37.218h-8.873
	V89.102L223.814,89.102z M205.238,78.435v9.13c-1.621,1.451-4.693,3.84-8.789,3.84c-4.012,0-6.572-2.389-6.572-6.229
	c0-2.304,0.939-4.096,2.816-5.12c1.537-0.854,3.584-1.28,6.486-1.366L205.238,78.435L205.238,78.435z M207.285,97.635h7.596
	c-0.598-2.133-0.768-5.632-0.768-11.435V70.67c0-9.813-5.633-14.422-15.617-14.422c-5.291,0-10.411,1.28-15.189,4.011l3.072,5.888
	c2.816-1.621,6.485-2.986,10.751-2.986c4.779,0,8.107,2.218,8.107,7.51v1.706l-7.254,0.256c-4.096,0.171-7.509,0.683-10.325,2.134
	c-4.096,2.048-6.741,5.547-6.741,10.923c0,7.765,5.546,12.8,13.141,12.8c5.035,0,8.789-2.133,11.777-4.95L207.285,97.635
	L207.285,97.635z"/>
<path fill="#FFFFFF" d="M242.393,127.506c2.158,0,4.004-0.975,5.465-2.264l0.488,1.916h2.297c-0.209-0.836-0.348-2.367-0.348-5.57
	v-10.896h-2.541v12.218c-0.871,1.148-2.717,2.332-4.631,2.332c-1.357,0-2.297-0.557-2.715-1.844
	c-0.244-0.697-0.279-1.463-0.279-2.576v-10.13h-2.576v10.757c0,1.252,0.141,2.088,0.418,2.994
	C238.771,126.811,240.826,127.506,242.393,127.506L242.393,127.506z M255.133,127.159h2.576v-12.115
	c1.533-1.357,3.203-2.471,5.049-2.471c2.332,0,2.959,1.879,2.959,4.352v10.234h2.541v-11.105c0-4.142-2.299-5.779-4.873-5.779
	c-2.125,0-3.969,1.01-5.779,2.541l-0.314-2.123h-2.158V127.159L255.133,127.159z M273.131,127.159h2.541v-16.466h-2.541V127.159
	L273.131,127.159z M274.385,106.967c1.01,0,1.74-0.73,1.74-1.705c0-1.01-0.695-1.74-1.74-1.74c-1.01,0-1.705,0.766-1.705,1.74
	S273.375,106.967,274.385,106.967L274.385,106.967z M285.037,127.262h2.193l6.301-16.57h-2.646l-4.664,13.16h-0.07l-4.803-13.16
	h-2.682L285.037,127.262L285.037,127.262z M308.326,119.36v-0.625c0-5.188-2.402-8.46-6.58-8.46c-3.969,0-6.754,3.447-6.754,8.46
	c0,4.803,2.541,8.771,7.764,8.771c1.811,0,3.795-0.521,5.221-1.463l-0.801-1.809c-1.148,0.625-2.506,1.113-4.072,1.113
	c-3.48,0-5.43-2.611-5.465-5.988H308.326L308.326,119.36z M297.639,117.375c0.07-2.75,1.602-5.012,4.143-5.012
	c2.576,0,3.795,2.506,3.863,5.012H297.639L297.639,117.375z M311.98,127.159h2.576v-12.115c1.602-1.637,2.785-2.367,3.969-2.367
	c0.592,0,1.01,0.139,1.428,0.348l0.904-2.332c-0.418-0.244-1.113-0.418-1.775-0.418c-1.428,0-2.818,0.522-4.629,2.507l-0.314-2.089
	h-2.158V127.159L311.98,127.159z M321.346,126.114c1.043,0.662,2.785,1.393,4.943,1.393c3.377,0,6.092-1.566,6.092-4.838
	c0-5.57-7.764-4.318-7.764-7.973c0-1.775,1.602-2.297,3.168-2.297c1.602,0,2.854,0.417,3.969,0.905v-2.263
	c-1.08-0.417-2.506-0.766-4.072-0.766c-3.656,0-5.57,2.02-5.57,4.525c0,5.467,7.693,4.316,7.693,7.902
	c0,1.881-1.602,2.646-3.516,2.646c-1.846,0-3.168-0.627-4.109-1.219L321.346,126.114L321.346,126.114z M345.609,127.159h2.262
	c-0.209-0.836-0.313-2.367-0.313-5.605v-5.674c0-3.934-2.438-5.605-5.85-5.605c-1.809,0-3.863,0.453-5.777,1.671l0.975,1.811
	c1.148-0.697,2.541-1.358,4.525-1.358c2.053,0,3.551,1.114,3.551,3.62v1.045l-3.133,0.104c-1.672,0.07-2.994,0.244-4.107,0.801
	c-1.672,0.768-2.785,2.264-2.785,4.457c0,3.168,2.227,5.082,5.221,5.082c2.055,0,3.656-0.975,4.943-2.193L345.609,127.159
	L345.609,127.159z M344.982,119.012v4.178c-0.766,0.801-2.299,2.158-4.352,2.158c-1.881,0-3.064-1.254-3.064-3.063
	c0-1.08,0.488-2.02,1.428-2.543c0.732-0.383,1.672-0.592,3.098-0.627L344.982,119.012L344.982,119.012z M352.084,124.165
	c0,1.984,1.008,3.203,3.098,3.203c0.766,0,1.637-0.174,2.297-0.488l-0.557-2.02c-0.244,0.105-0.73,0.244-1.01,0.244
	c-0.869,0-1.287-0.383-1.287-1.74v-20.852h-2.541V124.165L352.084,124.165z"/>
</svg>
